<svg viewBox="0 0 522.153 138.074" height="138.074" width="522.153" xmlns="http://www.w3.org/2000/svg" id="b"><g id="c"><path d="M130.228,50.071L88.012,7.86c-5.068-5.068-11.806-7.86-18.974-7.86s-13.907,2.791-18.975,7.86L7.847,50.071c-10.463,10.462-10.463,27.483,0,37.945l42.216,42.212c5.231,5.231,12.103,7.845,18.974,7.845s13.743-2.615,18.975-7.845l42.216-42.212c10.462-10.462,10.462-27.483,0-37.945M126.698,53.6c3.623,3.623,5.689,8.214,6.23,12.949h-17.696c-.451-1.955-1.408-3.817-2.93-5.341l-7.922-7.921-3.517,3.516,7.535,7.536c2.599,2.598,2.599,6.812,0,9.41l-34.654,34.652c-2.599,2.598-6.814,2.598-9.412,0l-34.655-34.652c-2.599-2.598-2.599-6.812,0-9.41l34.655-34.652c2.599-2.598,6.813-2.598,9.412,0l7.535,7.534,3.516-3.517-7.922-7.921c-1.523-1.522-3.386-2.48-5.34-2.93V5.145c4.888.553,9.419,2.713,12.949,6.243l42.216,42.211ZM11.377,53.6L53.593,11.388c3.529-3.53,8.061-5.69,12.95-6.243v17.707c-1.955.451-3.818,1.408-5.342,2.93L25.772,61.208c-1.522,1.524-2.479,3.386-2.929,5.341H5.147c.54-4.735,2.606-9.326,6.23-12.949M11.377,84.488c-3.623-3.623-5.69-8.214-6.23-12.949h17.696c.451,1.955,1.408,3.817,2.929,5.339l35.429,35.428c1.524,1.524,3.387,2.48,5.342,2.93v17.693c-4.735-.54-9.328-2.606-12.95-6.23L11.377,84.488ZM126.698,84.488l-42.216,42.21c-3.623,3.624-8.214,5.69-12.949,6.23v-17.693c1.954-.451,3.817-1.408,5.34-2.93l35.429-35.428c1.523-1.522,2.48-3.384,2.93-5.339h17.696c-.541,4.735-2.607,9.326-6.23,12.949"></path><path fill="#101820" d="M202.554,79.136c-17.124,0-29.755-13.479-29.755-30.603,0-16.955,12.546-30.773,30.009-30.773,10.766,0,17.208,3.815,23.143,9.41l-4.578,4.917c-5.001-4.747-10.596-8.139-18.65-8.139-13.14,0-22.974,10.597-22.974,24.415s9.919,24.584,22.974,24.584c8.138,0,13.479-3.136,19.158-8.562l4.409,4.323c-6.188,6.273-12.97,10.427-23.736,10.427"></path><path fill="#101820" d="M310.217,78.119h-7.205l-6.952-15.683h-32.299l-7.036,15.683h-6.866l27.042-59.764h6.273l27.042,59.764ZM279.953,26.153l-13.564,30.264h27.042l-13.479-30.264Z"></path><polygon fill="#101820" points="338.872 18.778 345.569 18.778 345.569 71.931 378.969 71.931 378.969 78.118 338.872 78.118 338.872 18.778"></polygon><polygon fill="#101820" points="422.628 78.118 415.846 78.118 415.846 54.636 391.177 18.778 399.316 18.778 419.322 48.448 439.498 18.778 447.297 18.778 422.628 54.552 422.628 78.118"></polygon><polygon fill="#101820" points="514.184 78.118 495.195 52.602 476.206 78.118 468.492 78.118 491.295 47.855 469.338 18.778 477.223 18.778 495.449 43.023 513.505 18.778 521.305 18.778 499.349 47.77 522.153 78.118 514.184 78.118"></polygon><path fill="#101820" d="M201.026,98.003c-1.653,0-3.279.4-4.833,1.19-1.511.778-2.804,1.84-3.843,3.159-1.378,1.759-2.077,3.792-2.077,6.043,0,1.516.29,2.961.859,4.294,1.166,2.726,3.109,4.676,5.776,5.798,1.293.547,2.661.823,4.067.823,1.863,0,3.656-.485,5.33-1.44l.331-.189v-4.601l-1.077.896c-1.474,1.226-3.01,1.823-4.695,1.823-1.862,0-3.442-.686-4.829-2.094-1.389-1.413-2.065-3.151-2.065-5.309,0-1.874.675-3.465,2.063-4.864,1.387-1.399,2.967-2.079,4.831-2.079,1.783,0,3.317.57,4.69,1.743l1.083.924v-4.601l-.332-.188c-1.551-.881-3.328-1.328-5.279-1.328"></path><path fill="#101820" d="M236.288,98.003c-1.915,0-3.71.481-5.336,1.431-1.648.965-2.964,2.276-3.911,3.9-.95,1.627-1.432,3.418-1.432,5.323,0,1.891.49,3.686,1.457,5.336.965,1.649,2.277,2.961,3.9,3.901,1.624.941,3.414,1.417,5.322,1.417,1.921,0,3.733-.487,5.385-1.449,1.648-.961,2.96-2.27,3.901-3.89.941-1.621,1.416-3.41,1.416-5.315,0-2.958-1.05-5.5-3.124-7.557-2.072-2.054-4.622-3.096-7.578-3.096M243.294,108.655c0,1.258-.321,2.452-.955,3.547-.637,1.097-1.5,1.971-2.566,2.6-2.116,1.249-4.812,1.264-6.988-.018-1.087-.641-1.95-1.513-2.564-2.587-.614-1.073-.925-2.264-.925-3.542,0-1.3.319-2.518.95-3.616.628-1.098,1.486-1.971,2.55-2.598,1.061-.623,2.236-.94,3.493-.94,1.265,0,2.453.326,3.531.969,1.083.645,1.941,1.526,2.552,2.618.612,1.097.922,2.296.922,3.567"></path><polygon fill="#101820" points="280.953 111.623 266.561 96.462 266.561 118.899 270.245 118.899 270.245 105.561 284.713 120.672 284.713 98.413 280.953 98.413 280.953 111.623"></polygon><polygon fill="#101820" points="303.773 101.911 308.355 101.911 308.355 118.899 312.028 118.899 312.028 101.911 316.61 101.911 316.61 98.413 303.773 98.413 303.773 101.911"></polygon><path fill="#101820" d="M333.517,118.9h4.053l2.187-4.807h7.917l2.204,4.807h4.026l-10.201-22.252-10.187,22.252ZM341.323,110.595l2.38-5.471,2.412,5.471h-4.792Z"></path><rect fill="#101820" height="20.487" width="3.696" y="98.412" x="372.523"></rect><polygon fill="#101820" points="411.461 111.623 397.069 96.462 397.069 118.899 400.754 118.899 400.754 105.561 415.221 120.672 415.221 98.413 411.461 98.413 411.461 111.623"></polygon><polygon fill="#101820" points="436.069 118.899 447.676 118.899 447.676 115.401 439.768 115.401 439.768 109.461 447.478 109.461 447.478 105.963 439.768 105.963 439.768 101.911 447.676 101.911 447.676 98.413 436.069 98.413 436.069 118.899"></polygon><path fill="#101820" d="M478.493,108.491c.932-1.127,1.406-2.491,1.406-4.057,0-2.029-.844-3.663-2.51-4.856-1.093-.784-2.79-1.166-5.188-1.166h-4.084v20.487h3.698v-8.089l5.671,8.089h4.493l-6.218-8.583c1.091-.339,2.008-.951,2.733-1.826M476.35,104.582c0,1.491-.662,2.338-2.084,2.664-.645.148-1.467.234-2.451.261v-5.646h.137c3.942,0,4.398,1.553,4.398,2.721"></path><path fill="#101820" d="M512.512,110.026c-.664-1.571-2.213-2.834-4.602-3.759l-2.186-.845c-.992-.381-1.454-.995-1.454-1.932,0-.264.105-.556.312-.866.503-.756,1.226-1.124,2.21-1.124,1.126,0,1.964.499,2.562,1.525l.337.578,2.995-1.824-.319-.554c-1.239-2.155-3.082-3.249-5.476-3.249-1.854,0-3.41.583-4.625,1.733-1.131,1.076-1.706,2.331-1.706,3.73,0,2.044.89,3.61,2.644,4.65.472.28,1.406.719,2.856,1.342,1.136.49,1.992.954,2.538,1.38.581.454.825,1.003.769,1.729l-.051.631c-.061.745-.355,1.347-.898,1.84-.545.495-1.178.735-1.937.735-1.15,0-1.994-.431-2.58-1.32-.321-.482-.476-1.025-.476-1.662v-.811l-3.755.803.062.586c.118,1.148.499,2.195,1.13,3.11,1.3,1.896,3.149,2.856,5.496,2.856.84,0,1.708-.189,2.578-.561,1.242-.525,2.25-1.331,3-2.394.755-1.072,1.138-2.295,1.138-3.637,0-.905-.189-1.81-.562-2.691"></path></g></svg>